<svg width="112" height="44" viewBox="0 0 112 44" fill="none" xmlns="http://www.w3.org/2000/svg">
<path d="M50.1416 15.009V27.8799H48.0633V15.009H50.1416ZM61.1157 24.4525C61.1157 25.0845 60.9638 25.674 60.66 26.2209C60.3561 26.7557 59.8943 27.1871 59.2744 27.5153C58.6546 27.8435 57.8949 28.0075 56.9956 28.0075C56.1205 28.0075 55.3366 27.8556 54.6438 27.5518C53.951 27.2358 53.398 26.7982 52.9848 26.2391C52.5716 25.6801 52.3346 25.0359 52.2738 24.3067H54.4979C54.5587 24.8658 54.7957 25.3458 55.2089 25.7469C55.6343 26.148 56.1995 26.3485 56.9044 26.3485C57.5364 26.3485 58.0226 26.1784 58.3629 25.8381C58.7153 25.4978 58.8916 25.0602 58.8916 24.5254C58.8916 24.0636 58.7639 23.6868 58.5087 23.3951C58.2535 23.0913 57.9375 22.8543 57.5607 22.6841C57.1839 22.514 56.6674 22.3195 56.0111 22.1007C55.2089 21.8455 54.5526 21.5903 54.0422 21.3351C53.5439 21.0798 53.1185 20.7091 52.766 20.223C52.4136 19.7368 52.2373 19.0987 52.2373 18.3087C52.2373 17.616 52.4075 17.0083 52.7478 16.4857C53.0881 15.963 53.5742 15.562 54.2062 15.2824C54.8382 14.9907 55.5675 14.8449 56.3939 14.8449C57.7066 14.8449 58.7457 15.1609 59.5114 15.7929C60.2893 16.4249 60.7329 17.2514 60.8423 18.2723H58.5999C58.5148 17.7861 58.2839 17.3729 57.9071 17.0326C57.5425 16.6801 57.0381 16.5039 56.3939 16.5039C55.8106 16.5039 55.3426 16.6558 54.9902 16.9597C54.6377 17.2514 54.4615 17.6767 54.4615 18.2358C54.4615 18.6734 54.583 19.038 54.8261 19.3297C55.0692 19.6092 55.373 19.8341 55.7376 20.0042C56.1144 20.1622 56.6249 20.3506 57.269 20.5694C58.0833 20.8246 58.7457 21.0859 59.2562 21.3533C59.7788 21.6085 60.2163 21.9853 60.5688 22.4836C60.9334 22.9819 61.1157 23.6382 61.1157 24.4525ZM65.2746 26.2574H69.7229V27.8799H63.1963V15.009H65.2746V26.2574ZM79.0255 25.0906H73.5927L72.6083 27.8799H70.3841L75.1241 15.2095H77.5123L82.2341 27.8799H80.01L79.0255 25.0906ZM78.4421 23.4863L76.3091 17.4701L74.1761 23.4863H78.4421ZM94.187 27.8799H92.1087L85.8555 18.3817V27.8799H83.7772V15.0272H85.8555L92.1087 24.5619V15.0272H94.187V27.8799ZM107.75 21.4262C107.75 22.7267 107.483 23.8631 106.948 24.8354C106.426 25.7955 105.654 26.543 104.633 27.0778C103.624 27.6125 102.415 27.8799 101.005 27.8799H96.7025V15.009H101.005C102.415 15.009 103.624 15.2764 104.633 15.8111C105.654 16.3337 106.426 17.0751 106.948 18.0353C107.483 18.9954 107.75 20.1257 107.75 21.4262ZM100.841 26.0021C102.384 26.0021 103.569 25.6011 104.396 24.7989C105.222 23.9968 105.636 22.8725 105.636 21.4262C105.636 19.9799 105.222 18.8557 104.396 18.0535C103.569 17.2514 102.384 16.8503 100.841 16.8503H98.7808V26.0021H100.841Z" fill="#333333"/>
<rect x="0.538818" y="25.6447" width="25.5796" height="25.5796" transform="rotate(-45.2904 0.538818 25.6447)" fill="#BC4B52"/>
<rect x="12.7859" y="37.24" width="8.21778" height="8.21778" transform="rotate(-45.2904 12.7859 37.24)" fill="#333333"/>
<rect x="0.630493" y="18.179" width="25.5796" height="25.5796" transform="rotate(-45.2904 0.630493 18.179)" fill="#BC4B52"/>
</svg>
