<svg width="109" height="124" viewBox="0 0 109 124" fill="none" xmlns="http://www.w3.org/2000/svg">
<path fill-rule="evenodd" clip-rule="evenodd" d="M54.539 0.661621C49.22 0.661621 40.3319 2.70441 31.968 4.97847C23.4114 7.29106 14.7855 10.0276 9.71316 11.685C7.59244 12.3853 5.7123 13.6697 4.28871 15.3905C2.86513 17.1114 1.95585 19.1989 1.66533 21.4133C-2.92902 55.9249 7.73204 81.5022 20.6672 98.4227C26.1525 105.661 32.6929 112.035 40.0698 117.332C43.0454 119.436 45.8051 121.048 48.1485 122.15C50.3069 123.167 52.6272 124 54.539 124C56.4507 124 58.7633 123.167 60.9294 122.15C63.7545 120.777 66.4572 119.165 69.0081 117.332C76.3852 112.035 82.9256 105.661 88.4108 98.4227C101.346 81.5022 112.007 55.9249 107.413 21.4133C107.123 19.1978 106.214 17.1091 104.79 15.3869C103.366 13.6648 101.486 12.379 99.3648 11.6773C92.0015 9.26303 84.5811 7.02688 77.1099 4.97076C68.746 2.71212 59.8579 0.661621 54.539 0.661621ZM71.0817 40.3303C71.8055 39.6066 72.7871 39.2 73.8106 39.2C74.8341 39.2 75.8157 39.6066 76.5394 40.3303C77.2632 41.0541 77.6698 42.0357 77.6698 43.0592C77.6698 44.0827 77.2632 45.0643 76.5394 45.7881L53.4135 68.914C53.0555 69.2729 52.6301 69.5577 52.1619 69.752C51.6936 69.9463 51.1916 70.0464 50.6846 70.0464C50.1777 70.0464 49.6757 69.9463 49.2074 69.752C48.7391 69.5577 48.3138 69.2729 47.9558 68.914L36.3928 57.351C36.0344 56.9927 35.7502 56.5672 35.5562 56.099C35.3623 55.6308 35.2625 55.129 35.2625 54.6222C35.2625 54.1154 35.3623 53.6135 35.5562 53.1453C35.7502 52.6771 36.0344 52.2517 36.3928 51.8933C36.7512 51.5349 37.1766 51.2507 37.6448 51.0567C38.113 50.8628 38.6149 50.763 39.1217 50.763C39.6285 50.763 40.1303 50.8628 40.5985 51.0567C41.0667 51.2507 41.4922 51.5349 41.8505 51.8933L50.6846 60.7351L71.0817 40.3303Z" fill="#54AC52"/>
</svg>
